<svg xmlns="http://www.w3.org/2000/svg" width="1365.333" height="1365.333" preserveAspectRatio="xMidYMid meet" version="1.0" viewBox="0 0 1024 1024"><metadata>Created by potrace 1.14, written by Peter Selinger 2001-2017</metadata><g fill="#000" stroke="none"><path d="M846 10224 c-373 -67 -675 -330 -796 -692 -15 -48 -32 -103 -36 -122 -5 -19 -9 -1936 -10 -4260 -2 -4554 -5 -4294 47 -4445 93 -266 271 -472 514 -593 112 -56 188 -80 310 -100 22 -4 1934 -7 4250 -7 4554 0 4262 -3 4420 52 302 107 530 333 635 629 64 181 59 -162 57 4464 l-2 4215 -22 81 c-54 198 -140 355 -270 487 -144 147 -321 243 -526 286 -90 19 -188 19 -4292 19 -3582 0 -4212 -2 -4279 -14z" transform="translate(0.000000,1024.000000) scale(0.100000,-0.100000)"/></g></svg>